<?xml version="1.0" standalone="no"?>
<!DOCTYPE svg PUBLIC "-//W3C//DTD SVG 20010904//EN"
 "http://www.w3.org/TR/2001/REC-SVG-20010904/DTD/svg10.dtd">
<svg version="1.0" xmlns="http://www.w3.org/2000/svg"
 width="1024.000000pt" height="1024.000000pt" viewBox="0 0 1024.000000 1024.000000"
 preserveAspectRatio="xMidYMid meet">

<g transform="translate(0.000000,1024.000000) scale(0.100000,-0.100000)"
fill="#000000" stroke="none">
<path d="M5219 7540 c-52 -9 -101 -43 -165 -113 -204 -226 -337 -671 -242
-814 50 -75 62 -78 410 -81 207 -2 322 1 350 9 53 14 112 72 127 124 50 180
-92 582 -272 773 -88 92 -134 115 -208 102z m66 -574 c13 -19 15 -51 13 -167
l-3 -144 -50 0 -50 0 -3 144 c-3 159 6 191 53 191 15 0 31 -9 40 -24z"/>
<path d="M4573 7511 c-42 -30 -73 -90 -73 -139 0 -15 9 -46 19 -68 58 -128
240 -139 308 -19 66 117 -20 255 -159 255 -45 0 -62 -5 -95 -29z"/>
<path d="M5931 7429 c-197 -38 -281 -284 -148 -435 132 -150 365 -114 448 70
25 55 25 157 0 212 -52 114 -175 177 -300 153z m102 -133 c18 -7 43 -26 57
-41 21 -22 25 -37 25 -85 0 -48 -4 -63 -25 -85 -51 -55 -113 -69 -171 -40
-103 54 -85 221 27 255 41 12 51 12 87 -4z"/>
<path d="M3805 7379 c-92 -9 -115 -21 -115 -60 0 -25 23 -39 92 -55 34 -8 82
-26 105 -39 38 -23 113 -99 113 -116 0 -4 -139 -150 -310 -325 -170 -175 -310
-320 -310 -324 0 -3 34 -39 74 -79 l75 -74 324 328 323 329 38 -29 c45 -34 62
-63 47 -78 -25 -25 -11 -60 47 -119 33 -32 64 -58 69 -58 17 0 213 211 213
229 0 9 -27 43 -60 76 -58 58 -61 59 -91 48 -29 -11 -33 -10 -64 24 -32 35
-33 38 -19 66 l15 28 -93 96 c-121 124 -143 135 -278 139 -58 1 -145 -2 -195
-7z"/>
<path d="M6460 6988 c-85 -79 -120 -119 -120 -135 0 -14 24 -48 62 -88 78 -83
89 -90 127 -70 17 8 34 15 40 15 5 0 34 -29 65 -63 l56 -64 -12 -54 c-10 -48
-9 -58 10 -94 24 -47 114 -154 157 -187 24 -19 43 -23 103 -25 41 -1 79 -4 86
-6 6 -3 31 -30 55 -61 l43 -55 -22 -31 c-16 -23 -20 -37 -14 -50 17 -36 124
-140 144 -140 23 0 148 115 222 203 55 66 55 65 -17 145 -54 59 -84 72 -120
48 -13 -9 -28 -16 -33 -16 -5 0 -33 27 -62 61 l-53 60 11 54 c7 36 8 65 1 89
-12 43 -111 158 -172 199 -39 27 -47 29 -114 24 l-73 -5 -55 62 c-30 35 -55
66 -55 70 0 4 11 19 25 34 14 15 25 32 25 39 0 22 -143 153 -167 153 -15 0
-63 -37 -143 -112z"/>
<path d="M3417 7069 c-82 -14 -137 -82 -137 -169 0 -65 24 -110 78 -146 54
-37 105 -40 165 -10 73 35 101 85 95 167 -8 110 -93 177 -201 158z"/>
<path d="M5943 6619 c-304 -36 -575 -263 -661 -553 -33 -112 -41 -290 -18
-405 51 -250 198 -441 431 -558 198 -100 443 -110 652 -26 313 125 520 452
500 788 -28 470 -436 811 -904 754z m333 -166 c165 -62 294 -175 365 -318 55
-112 73 -191 73 -310 0 -312 -199 -569 -504 -652 -102 -28 -263 -23 -365 10
-208 68 -365 221 -432 421 -24 73 -27 96 -27 221 0 124 3 149 26 217 68 203
249 371 460 428 59 16 97 19 198 17 110 -3 135 -8 206 -34z"/>
<path d="M4275 6576 c-133 -26 -244 -75 -335 -147 -297 -235 -382 -617 -210
-949 76 -144 193 -257 343 -329 125 -60 192 -75 337 -75 107 1 138 4 215 28
223 68 377 198 475 401 111 229 104 479 -20 701 -95 172 -270 304 -468 355
-101 26 -248 32 -337 15z"/>
<path d="M3080 6544 c-52 -47 -139 -163 -183 -245 -130 -236 -123 -508 13
-576 101 -52 317 -9 514 101 93 53 120 87 147 186 40 153 55 126 -194 363
-133 127 -225 207 -237 207 -11 0 -38 -16 -60 -36z"/>
<path d="M5157 6463 c-4 -3 -7 -47 -7 -96 0 -76 4 -97 26 -141 14 -28 29 -55
34 -60 14 -14 35 9 91 93 47 71 49 78 49 143 l0 68 -93 0 c-52 0 -97 -3 -100
-7z"/>
<path d="M7045 5725 c-24 -24 -25 -28 -25 -185 l0 -160 -69 0 c-49 0 -72 -4
-81 -15 -10 -12 -11 -56 -4 -203 9 -179 11 -190 40 -252 48 -102 147 -185 267
-224 15 -5 17 -19 17 -104 0 -55 3 -114 7 -132 8 -40 123 -167 141 -156 9 5
12 62 12 196 l0 188 38 13 c121 39 198 102 249 206 l38 77 3 178 c2 99 1 190
-2 203 -6 22 -12 24 -74 27 l-67 3 -5 168 c-5 152 -7 170 -24 183 -28 20 -73
17 -96 -6 -18 -18 -20 -33 -20 -185 l0 -165 -110 0 c-126 0 -112 -17 -115 135
-3 183 -4 194 -25 215 -27 27 -66 25 -95 -5z"/>
<path d="M2701 5658 c-64 -33 -86 -68 -86 -133 0 -57 18 -91 67 -128 34 -25
106 -26 148 -1 99 58 107 197 16 253 -52 32 -95 35 -145 9z m84 -127 c0 -34
-32 -52 -50 -27 -19 25 -2 58 28 54 16 -2 22 -10 22 -27z"/>
<path d="M3368 5641 c-71 -23 -128 -100 -128 -172 1 -54 34 -114 79 -144 146
-97 331 69 251 225 -36 70 -132 113 -202 91z"/>
<path d="M2872 5340 c-66 -14 -144 -53 -192 -96 -52 -47 -100 -119 -100 -151
l0 -23 159 0 c88 0 171 -4 184 -9 16 -6 35 -30 52 -65 33 -67 29 -103 -15
-165 l-30 -41 -169 0 c-99 0 -172 -4 -176 -10 -12 -20 38 -110 86 -155 156
-146 397 -146 543 1 25 24 53 62 62 84 l18 40 133 0 133 0 42 41 c85 82 203
146 348 189 41 13 80 27 85 32 7 6 -4 22 -30 44 -79 69 -66 67 -397 61 l-298
-5 -43 61 c-23 34 -61 75 -84 93 -81 62 -215 94 -311 74z"/>
<path d="M5153 5265 c-69 -35 -106 -88 -111 -165 -5 -73 11 -122 55 -171 62
-69 172 -86 261 -40 47 24 66 45 91 101 85 187 -110 367 -296 275z m168 -131
c12 -11 19 -31 19 -56 0 -79 -86 -117 -146 -64 -49 41 -31 123 31 146 24 9 72
-4 96 -26z"/>
<path d="M6627 5206 c-67 -25 -98 -68 -99 -141 -2 -87 60 -150 147 -150 82 0
143 54 152 137 12 109 -95 191 -200 154z m73 -121 c18 -22 8 -50 -19 -50 -32
0 -49 28 -32 49 17 20 35 20 51 1z"/>
<path d="M5830 4965 c-179 -29 -361 -100 -512 -201 l-96 -64 -84 52 c-157 97
-334 163 -528 194 -116 19 -358 14 -469 -11 -502 -111 -907 -465 -1062 -926
-70 -209 -71 -222 -76 -690 -3 -293 -1 -439 6 -467 14 -51 52 -97 102 -122 38
-20 73 -20 2089 -20 2000 0 2052 0 2088 19 20 11 51 34 69 53 61 63 63 78 63
518 0 352 -2 411 -20 515 -87 508 -431 925 -899 1087 -164 57 -234 69 -416 73
-115 3 -197 0 -255 -10z m408 -130 c260 -42 486 -159 678 -350 185 -184 295
-391 354 -670 19 -88 22 -145 27 -461 3 -198 3 -382 -1 -407 -5 -33 -16 -56
-37 -77 l-31 -30 -729 0 -729 0 0 409 c0 444 -9 561 -54 721 -62 222 -180 431
-330 585 l-57 58 28 23 c15 13 82 51 148 84 121 61 249 103 360 119 97 14 273
12 373 -4z"/>
<path d="M2800 4451 c-111 -23 -193 -136 -176 -244 19 -115 102 -187 216 -187
166 0 266 156 196 306 -28 59 -75 100 -142 120 -26 8 -50 13 -53 13 -3 -1 -22
-4 -41 -8z m75 -135 c76 -32 76 -130 -1 -162 -31 -13 -39 -13 -68 1 -32 15
-56 50 -56 80 0 30 26 68 55 81 37 16 30 16 70 0z"/>
</g>
</svg>
